<svg xmlns="http://www.w3.org/2000/svg" xmlns:xlink="http://www.w3.org/1999/xlink" version="1.1" x="0px" y="0px" viewBox="0 0 100 125" enable-background="new 0 0 100 100" xml:space="preserve"><path fill="#000000" d="M80.8,68.8c-1.7-1.7-4-2.7-6.5-2.7c-2.5,0-4.8,1-6.5,2.7L67.6,69l-17-17  c5.3-6.7,4.9-16.5-1.3-22.7l-13-13c-0.8-0.8-2-0.8-2.8,0L12.1,37.7c-0.8,0.8-0.8,2,0,2.8l13,13c3.2,3.2,7.5,5,12.1,5  c3.9,0,7.6-1.3,10.6-3.7l17,17L64.6,72c-3.6,3.6-3.6,9.4,0,13l3.1,3.1c0.4,0.4,0.9,0.6,1.4,0.6c0.5,0,1-0.2,1.4-0.6l13.3-13.3  c0.4-0.4,0.6-0.9,0.6-1.4s-0.2-1-0.6-1.4L80.8,68.8z M46.5,50.7c-2.5,2.5-5.8,3.8-9.3,3.8s-6.8-1.4-9.3-3.8L16.4,39.1l18.5-18.5  l11.6,11.6C51.6,37.3,51.6,45.6,46.5,50.7z M69.1,83.8l-1.6-1.6c-2-2-2-5.3,0-7.3l3.1-3.1c1-1,2.3-1.5,3.7-1.5  c1.3,0,2.7,0.5,3.7,1.5l1.6,1.6L69.1,83.8z"/><path fill="#000000" d="M26.8,36.8c-0.8-0.8-2-0.8-2.8,0c-0.8,0.8-0.8,2,0,2.8l10.3,10.3c0.4,0.4,0.9,0.6,1.4,0.6  c0.5,0,1-0.2,1.4-0.6c0.8-0.8,0.8-2,0-2.8L26.8,36.8z"/><path fill="#000000" d="M35.4,28.2c-0.8-0.8-2-0.8-2.8,0c-0.8,0.8-0.8,2,0,2.8l10.3,10.3c0.4,0.4,0.9,0.6,1.4,0.6  s1-0.2,1.4-0.6c0.8-0.8,0.8-2,0-2.8L35.4,28.2z"/><text x="0" y="115" fill="#000000" font-size="5px" font-weight="bold" font-family="'Helvetica Neue', Helvetica, Arial-Unicode, Arial, Sans-serif">Created by André Luiz Gollo</text><text x="0" y="120" fill="#000000" font-size="5px" font-weight="bold" font-family="'Helvetica Neue', Helvetica, Arial-Unicode, Arial, Sans-serif">from the Noun Project</text></svg>