<?xml version="1.0" encoding="iso-8859-1"?>
<!-- Generator: Adobe Illustrator 16.0.0, SVG Export Plug-In . SVG Version: 6.00 Build 0)  -->
<!DOCTYPE svg PUBLIC "-//W3C//DTD SVG 1.1//EN" "http://www.w3.org/Graphics/SVG/1.1/DTD/svg11.dtd">
<svg version="1.1" id="Capa_1" xmlns="http://www.w3.org/2000/svg" xmlns:xlink="http://www.w3.org/1999/xlink" x="0px" y="0px"
	 width="217.657px" height="217.657px" viewBox="0 0 217.657 217.657" style="enable-background:new 0 0 217.657 217.657;"
	 xml:space="preserve">
<g>
	<g>
		<path d="M84.029,63.548c-0.998,1.544-0.556,3.604,0.988,4.602c0.559,0.362,1.185,0.534,1.804,0.534
			c1.092,0,2.161-0.537,2.798-1.522c0.518-0.802,12.569-19.807,1.256-34.23c-7.766-9.901,3.209-23.403,3.375-23.605
			c1.176-1.41,0.988-3.507-0.421-4.684c-1.41-1.181-3.509-0.992-4.689,0.418c-0.148,0.177-3.641,4.391-5.871,10.267
			c-3.129,8.242-2.31,15.75,2.368,21.713C94.009,47.714,84.126,63.396,84.029,63.548z"/>
		<path d="M129.338,63.548c-0.998,1.544-0.557,3.604,0.988,4.602c0.559,0.362,1.185,0.534,1.803,0.534
			c1.093,0,2.162-0.537,2.799-1.522c0.518-0.802,12.568-19.807,1.256-34.23c-7.766-9.901,3.209-23.403,3.376-23.605
			c1.177-1.41,0.988-3.507-0.421-4.684c-1.41-1.181-3.51-0.992-4.689,0.418c-0.146,0.177-3.641,4.391-5.871,10.267
			c-3.129,8.242-2.311,15.75,2.367,21.713C139.317,47.714,129.435,63.396,129.338,63.548z"/>
		<path d="M106.021,67.114c-1.165,1.422-0.956,3.519,0.466,4.684c0.619,0.506,1.365,0.753,2.107,0.753
			c0.963,0,1.919-0.416,2.577-1.22c0.169-0.206,4.162-5.131,6.369-12.244c3.021-9.731,1.31-18.86-4.951-26.399
			c-9.041-10.888,3.31-27.065,3.498-27.309c1.133-1.447,0.879-3.538-0.567-4.67c-1.446-1.134-3.539-0.881-4.673,0.566
			c-0.654,0.835-15.879,20.613-3.379,35.667C118.984,50.81,106.552,66.461,106.021,67.114z"/>
		<path d="M188.23,87.811h-79.402H29.427c-1.838,0-3.329,1.49-3.329,3.328v12.803c0,1.724,1.31,3.141,2.989,3.311
			c0.179,0.031,11.027,0.049,11.027,0.049c-0.244,7.096,0.55,26.023,14.15,41.321c4.829,5.433,10.745,9.808,17.707,13.125
			l-19.104,51.42c-0.64,1.725,0.238,3.641,1.961,4.28c0.382,0.142,0.774,0.209,1.159,0.209c1.351,0,2.622-0.83,3.12-2.17
			l19.014-51.18c8.016,2.883,17.207,4.561,27.528,5.026v41.143c0,1.788,1.411,3.242,3.18,3.319c1.769-0.077,3.18-1.532,3.18-3.319
			v-41.143c10.321-0.467,19.512-2.145,27.528-5.026l19.014,51.18c0.498,1.34,1.77,2.17,3.119,2.17c0.386,0,0.777-0.068,1.16-0.209
			c1.723-0.641,2.601-2.556,1.961-4.28l-19.104-51.42c6.962-3.317,12.878-7.692,17.707-13.125
			c13.601-15.297,14.394-34.225,14.149-41.321c0,0,10.849-0.019,11.027-0.049c1.68-0.17,2.989-1.587,2.989-3.311V91.139
			C191.56,89.3,190.068,87.811,188.23,87.811z M158.367,144.257c-10.033,11.246-25.613,17.428-46.358,18.416v-12.209
			c0-1.787-1.411-3.242-3.18-3.32c-1.769,0.078-3.18,1.534-3.18,3.32v12.209c-20.746-0.988-36.326-7.169-46.359-18.416
			c-12.131-13.598-12.696-31.056-12.499-36.954h62.038h62.039C171.063,113.2,170.498,130.659,158.367,144.257z M184.902,100.613
			h-76.074H32.754v-6.144h76.074h76.074V100.613z"/>
	</g>
</g>
<g>
</g>
<g>
</g>
<g>
</g>
<g>
</g>
<g>
</g>
<g>
</g>
<g>
</g>
<g>
</g>
<g>
</g>
<g>
</g>
<g>
</g>
<g>
</g>
<g>
</g>
<g>
</g>
<g>
</g>
</svg>
