<?xml version="1.0" encoding="iso-8859-1"?>
<!-- Generator: Adobe Illustrator 16.0.0, SVG Export Plug-In . SVG Version: 6.00 Build 0)  -->
<!DOCTYPE svg PUBLIC "-//W3C//DTD SVG 1.1//EN" "http://www.w3.org/Graphics/SVG/1.1/DTD/svg11.dtd">
<svg version="1.1" id="Capa_1" xmlns="http://www.w3.org/2000/svg" xmlns:xlink="http://www.w3.org/1999/xlink" x="0px" y="0px"
	 width="45px" height="45px" viewBox="0 0 45 45" style="enable-background:new 0 0 45 45;" xml:space="preserve">
<g>
	<path d="M42,4.457h-0.842V3c0-1.657-1.344-3-3-3c-1.657,0-3,1.343-3,3v1.457H9.842V3c0-1.657-1.343-3-3-3c-1.656,0-3,1.343-3,3
		v1.457H3c-1.657,0-3,1.343-3,3s1.343,3,3,3h0.842V42c0,1.657,1.344,3,3,3c1.657,0,3-1.343,3-3V10.457h1.709l3.387,22.98
		c-1.201,0.185-2.121,1.211-2.121,2.463c0,1.381,1.119,2.5,2.5,2.5h0.352l0.155,1.055c0.073,0.497,0.5,0.854,0.987,0.854
		c0.049,0,0.099-0.002,0.146-0.011c0.547-0.081,0.924-0.588,0.844-1.135l-0.111-0.765h9.623L27.2,39.163
		c-0.08,0.546,0.297,1.054,0.844,1.135c0.049,0.007,0.099,0.011,0.146,0.011c0.488,0,0.916-0.355,0.988-0.854l0.155-1.055h0.353
		c1.381,0,2.5-1.119,2.5-2.5c0-1.252-0.922-2.278-2.121-2.463l3.387-22.98h1.709V42c0,1.657,1.343,3,3,3c1.656,0,3-1.343,3-3V10.457
		H42c1.657,0,3-1.343,3-3S43.657,4.457,42,4.457z M28.048,33.4H16.952l-3.38-22.943h17.854L28.048,33.4z"/>
</g>
<g>
</g>
<g>
</g>
<g>
</g>
<g>
</g>
<g>
</g>
<g>
</g>
<g>
</g>
<g>
</g>
<g>
</g>
<g>
</g>
<g>
</g>
<g>
</g>
<g>
</g>
<g>
</g>
<g>
</g>
</svg>
