<?xml version="1.0" encoding="iso-8859-1"?>
<!-- Generator: Adobe Illustrator 17.1.0, SVG Export Plug-In . SVG Version: 6.00 Build 0)  -->
<!DOCTYPE svg PUBLIC "-//W3C//DTD SVG 1.1//EN" "http://www.w3.org/Graphics/SVG/1.1/DTD/svg11.dtd">
<svg version="1.1" id="Capa_1" xmlns="http://www.w3.org/2000/svg" xmlns:xlink="http://www.w3.org/1999/xlink" x="0px" y="0px"
	 viewBox="0 0 465 465" style="enable-background:new 0 0 465 465;" xml:space="preserve">
<g>
	<path d="M204.146,345.59c12.572,0,22.8-10.228,22.8-22.8v-41.308c0-4.142-3.357-7.5-7.5-7.5s-7.5,3.358-7.5,7.5v41.308
		c0,4.301-3.499,7.8-7.8,7.8c-4.302,0-7.801-3.499-7.801-7.8v-40.832c0-13.179,10.147-23.502,23.101-23.502
		s23.101,10.327,23.101,23.509c0,4.142,3.357,7.5,7.5,7.5h10.808c4.301,0,7.8,3.499,7.8,7.8s-3.499,7.8-7.8,7.8h-10.808
		c-4.143,0-7.5,3.358-7.5,7.5v45.885c0,4.142,3.357,7.5,7.5,7.5s7.5-3.358,7.5-7.5v-38.385h3.308c12.572,0,22.8-10.228,22.8-22.8
		s-10.228-22.8-22.8-22.8h-4.033c-3.463-17.656-18.905-31.009-37.375-31.009c-21.009,0-38.101,17.272-38.101,38.502v40.832
		C181.346,335.362,191.574,345.59,204.146,345.59z"/>
	<path d="M285.018,121.524V96.229c0-4.142-3.357-7.5-7.5-7.5h-3.476V22.081C274.042,9.905,264.135,0,251.956,0h-38.92
		c-12.174,0-22.078,9.905-22.078,22.081v66.649h-3.542c-4.143,0-7.5,3.358-7.5,7.5v25.295
		c-40.148,15.813-65.792,52.174-65.792,94.016v229.2c0,11.171,9.088,20.259,20.259,20.259h196.234
		c11.171,0,20.259-9.088,20.259-20.259v-229.2C350.876,173.711,325.208,137.35,285.018,121.524z M205.958,22.081
		c0-3.904,3.175-7.081,7.078-7.081h38.92c3.907,0,7.086,3.176,7.086,7.081v66.649h-53.084V22.081z M335.876,444.741
		c0,2.9-2.359,5.259-5.259,5.259H134.383c-2.899,0-5.259-2.359-5.259-5.259v-229.2c0-36.683,23.358-68.458,59.601-81.281h61.769
		c4.143,0,7.5-3.358,7.5-7.5s-3.357-7.5-7.5-7.5h-55.578v-15.53h75.102v23.03c0,3.21,2.043,6.064,5.082,7.1
		c36.92,12.576,60.776,44.638,60.776,81.682V444.741z"/>
	<path d="M304.817,198.199H160.183c-4.143,0-7.5,3.358-7.5,7.5V386.45c0,4.142,3.357,7.5,7.5,7.5h144.635c4.143,0,7.5-3.358,7.5-7.5
		V205.699C312.317,201.557,308.96,198.199,304.817,198.199z M297.317,378.95H167.683V213.199h129.635V378.95z"/>
</g>
<g>
</g>
<g>
</g>
<g>
</g>
<g>
</g>
<g>
</g>
<g>
</g>
<g>
</g>
<g>
</g>
<g>
</g>
<g>
</g>
<g>
</g>
<g>
</g>
<g>
</g>
<g>
</g>
<g>
</g>
</svg>
