<?xml version="1.0" encoding="iso-8859-1"?>
<!-- Generator: Adobe Illustrator 18.1.1, SVG Export Plug-In . SVG Version: 6.00 Build 0)  -->
<svg version="1.1" id="Capa_1" xmlns="http://www.w3.org/2000/svg" xmlns:xlink="http://www.w3.org/1999/xlink" x="0px" y="0px"
	 viewBox="0 0 581.176 581.176" style="enable-background:new 0 0 581.176 581.176;" xml:space="preserve">
<g>
	<g>
		<polygon points="305.166,392.27 479.495,392.27 479.495,363.235 305.166,363.235 305.166,101.682 508.529,101.682 508.529,72.647 
			290.588,14.529 72.647,72.647 72.647,101.682 276.01,101.682 276.01,363.235 101.682,363.235 101.682,392.27 276.01,392.27 
			276.01,537.564 232.519,537.564 232.519,566.647 348.657,566.647 348.657,537.564 305.166,537.564 		"/>
		<polygon points="69.765,421.353 43.612,290.588 0,290.588 29.035,435.882 29.035,566.647 203.363,566.647 174.329,421.353 		"/>
		<polygon points="537.564,290.588 511.411,421.353 406.848,421.353 377.813,566.647 552.142,566.647 552.142,435.882 
			581.176,290.588 		"/>
	</g>
</g>
<g>
</g>
<g>
</g>
<g>
</g>
<g>
</g>
<g>
</g>
<g>
</g>
<g>
</g>
<g>
</g>
<g>
</g>
<g>
</g>
<g>
</g>
<g>
</g>
<g>
</g>
<g>
</g>
<g>
</g>
</svg>
